<svg xmlns="http://www.w3.org/2000/svg" viewBox="0 0 1920 1080">
  <defs>
    <style>
      .a {
        fill: #f0f0f0;
      }

      .b {
        font-size: 92px;
        letter-spacing: -0.06em;
      }

      .b, .r {
        fill: #333;
      }

      .b, .g, .r {
        font-family: Aleo-Bold, Aleo;
        font-weight: 700;
      }

      .c {
        letter-spacing: 0em;
      }

      .d {
        fill: #7d3f65;
      }

      .e {
        fill: #653353;
      }

      .f {
        fill: #804974;
      }

      .g {
        font-size: 60px;
        letter-spacing: 0.01em;
      }

      .g, .k {
        fill: #fff;
      }

      .h {
        fill: #e29128;
      }

      .i {
        fill: #da800c;
      }

      .j {
        fill: #e4a256;
      }

      .l {
        fill: #37485d;
      }

      .m {
        fill: #22323f;
      }

      .n {
        fill: #41596d;
      }

      .o {
        fill: #5cbbb3;
      }

      .p {
        fill: #3f9587;
      }

      .q {
        fill: #69c6bc;
      }

      .r {
        font-size: 36px;
      }

      .s {
        letter-spacing: -0.02em;
      }

      .t {
        letter-spacing: -0.02em;
      }

      .u {
        font-size: 30px;
        fill: #4d4d4d;
        font-family: Lato-Light, Lato;
      }

      .v {
        letter-spacing: 0.02em;
      }

      .w {
        letter-spacing: 0.02em;
      }
    </style>
  </defs>
  <title>PitchDeck_New Slides 05.01.2016</title>
  <g>
    <rect class="a" width="1920" height="1080"/>
    <text class="b" transform="translate(110.64 160.29)">V<tspan class="c" x="69.05" y="0">aluation Slide</tspan></text>
    <g>
      <g>
        <path class="d" d="M485,479.89a176.09,176.09,0,1,1-352.19,0c0-97.27,78.85-176.12,176.09-176.12,88.65,0,161.95,65.51,174.26,150.74A180,180,0,0,1,485,479.89Z"/>
        <path class="e" d="M485,479.88a177.43,177.43,0,0,0-1.85-25.37l-123.88-82L235,572.58,360.42,648.3A176.16,176.16,0,0,0,485,479.88Z"/>
        <circle class="f" cx="308.9" cy="479.88" r="118.59"/>
      </g>
      <text class="g" transform="translate(222.95 500.29)">$150K</text>
    </g>
    <g>
      <g>
        <path class="h" d="M912.49,479.89a176.09,176.09,0,1,1-352.19,0c0-97.27,78.85-176.12,176.09-176.12,88.65,0,161.95,65.51,174.26,150.74A180,180,0,0,1,912.49,479.89Z"/>
        <path class="i" d="M912.5,479.88a177.43,177.43,0,0,0-1.85-25.37l-123.88-82L662.48,572.58,787.92,648.3A176.16,176.16,0,0,0,912.5,479.88Z"/>
        <circle class="j" cx="736.4" cy="479.88" r="118.59"/>
      </g>
      <text class="g" transform="translate(648.82 500.29)">$100K</text>
      <g>
        <path class="h" d="M912.5,596.63a59.36,59.36,0,1,1-.62-8.55A60.66,60.66,0,0,1,912.5,596.63Z"/>
        <path class="i" d="M912.5,596.62a59.81,59.81,0,0,0-.62-8.55l-41.76-27.64-41.9,67.44,42.28,25.53A59.38,59.38,0,0,0,912.5,596.62Z"/>
        <circle class="j" cx="853.14" cy="596.62" r="39.98"/>
      </g>
      <path class="k" d="M858.51,576.89H840.85v17.64l21.76,21.77,17.67-17.67Zm-6.24,11a3.65,3.65,0,1,1,0-5.16A3.65,3.65,0,0,1,852.27,587.85Zm4.52,27.46-3,3L833.3,597.92V582h4.12v14Z"/>
    </g>
    <g>
      <g>
        <path class="l" d="M1361,479.89a176.09,176.09,0,1,1-352.19,0c0-97.27,78.85-176.12,176.09-176.12,88.65,0,161.95,65.51,174.26,150.74A180,180,0,0,1,1361,479.89Z"/>
        <path class="m" d="M1361,479.88a177.43,177.43,0,0,0-1.85-25.37l-123.88-82L1111,572.58l125.44,75.72A176.16,176.16,0,0,0,1361,479.88Z"/>
        <circle class="n" cx="1184.9" cy="479.88" r="118.59"/>
      </g>
      <text class="g" transform="translate(1111.52 500.29)">$40K</text>
      <g>
        <path class="l" d="M1361,596.63a59.36,59.36,0,1,1-.62-8.55A60.66,60.66,0,0,1,1361,596.63Z"/>
        <path class="m" d="M1361,596.62a59.81,59.81,0,0,0-.62-8.55l-41.76-27.64-41.9,67.44L1319,653.39A59.38,59.38,0,0,0,1361,596.62Z"/>
        <circle class="n" cx="1301.64" cy="596.62" r="39.98"/>
      </g>
      <path class="k" d="M1284.44,588.22a2.94,2.94,0,0,0-2.94,2.94v12.29a2.93,2.93,0,1,0,5.87,0V591.16a2.94,2.94,0,0,0-2.94-2.93m23.67-11,2-3.74a.41.41,0,1,0-.71-.39l-2.07,3.78a14.29,14.29,0,0,0-11.49,0l-2.07-3.77a.41.41,0,0,0-.71.39l2,3.74a11.89,11.89,0,0,0-6.64,10.57h26.24a11.91,11.91,0,0,0-6.65-10.57m-12.5,5.78a1.11,1.11,0,1,1,1.11-1.11,1.11,1.11,0,0,1-1.11,1.11m12,0a1.11,1.11,0,1,1,1.11-1.11,1.11,1.11,0,0,1-1.11,1.11m-19.14,5.81v19a3.13,3.13,0,0,0,3.13,3.13h2.13v6.5a2.93,2.93,0,1,0,5.87,0V611h4v6.5a2.93,2.93,0,1,0,5.87,0V611h2.14a3.13,3.13,0,0,0,3.13-3.13v-19Zm33.25,2.38a2.93,2.93,0,0,0-5.87,0v12.29a2.93,2.93,0,1,0,5.87,0Z"/>
    </g>
    <g>
      <g>
        <path class="o" d="M1809.49,479.89a176.09,176.09,0,1,1-352.19,0c0-97.27,78.85-176.12,176.09-176.12,88.65,0,161.95,65.51,174.26,150.74A180,180,0,0,1,1809.49,479.89Z"/>
        <path class="p" d="M1809.49,479.88a177.43,177.43,0,0,0-1.85-25.37l-123.88-82L1559.48,572.58l125.44,75.72A176.16,176.16,0,0,0,1809.49,479.88Z"/>
        <circle class="q" cx="1633.4" cy="479.88" r="118.59"/>
      </g>
      <text class="g" transform="translate(1563.07 500.29)">$10K</text>
      <g>
        <path class="o" d="M1809.49,596.63a59.36,59.36,0,1,1-.62-8.55A60.66,60.66,0,0,1,1809.49,596.63Z"/>
        <path class="p" d="M1809.49,596.62a59.81,59.81,0,0,0-.62-8.55l-41.76-27.64-41.9,67.44,42.28,25.53A59.38,59.38,0,0,0,1809.49,596.62Z"/>
        <circle class="q" cx="1750.13" cy="596.62" r="39.98"/>
      </g>
      <path class="k" d="M1750.13,622.08c-2.85-2.31-3.69-2.91-9.25-4.32-7.73-2-12.17-7.07-12.17-14,0-3.87,1.56-7.44,3.36-12.34,2-5.52.88-7.27-1.26-9.5L1729,580l10.43-8.83c1,1.06,2.49,3,5.15,3s4.39-1.88,5.58-2.93c1.08,1,2.84,2.93,5.53,2.93s4-1.85,5.18-3c2.29,2,.2.24,10.39,8.86l-1.82,1.9c-2.14,2.23-3.29,4-1.26,9.5,1.8,4.9,3.36,8.47,3.36,12.34,0,6.93-4.43,12-12.17,14C1753.82,619.17,1753,619.77,1750.13,622.08Zm-14.06-41.57c2.19,3.06,2.85,6.62.64,12.62-1.71,4.64-3.06,7.75-3.06,10.64,0,5.84,4.59,8.23,8.45,9.21s6.07,1.54,8,2.75c2-1.2,4.27-1.79,8-2.75s8.45-3.38,8.45-9.21c0-2.89-1.35-6-3.06-10.64-2.21-6-1.55-9.56.64-12.62l-3.33-2.81a10.31,10.31,0,0,1-5.18,1.43,10.62,10.62,0,0,0-11.12,0,10.31,10.31,0,0,1-5.18-1.43Zm20.17,24.32-6-3.17-6,3.17,1.15-6.71-4.87-4.75,6.73-1,3-6.1,3,6.1,6.73,1-4.87,4.75Z"/>
    </g>
    <g>
      <g>
        <path class="d" d="M485,596.63a59.36,59.36,0,1,1-.62-8.55A60.66,60.66,0,0,1,485,596.63Z"/>
        <path class="e" d="M485,596.62a59.81,59.81,0,0,0-.62-8.55l-41.76-27.64-41.9,67.44L443,653.39A59.38,59.38,0,0,0,485,596.62Z"/>
        <circle class="f" cx="425.64" cy="596.62" r="39.98"/>
      </g>
      <g>
        <polygon class="k" points="398.49 597.81 417.61 606.73 417.61 603.28 401.89 596.22 417.61 589.11 417.61 585.63 398.49 594.58 398.49 597.81"/>
        <polygon class="k" points="433.67 589.11 449.35 596.22 433.67 603.28 433.67 606.73 452.79 597.81 452.79 594.58 433.67 585.63 433.67 589.11"/>
        <polygon class="k" points="420.74 611.35 424 611.35 430.5 581.89 427.24 581.89 420.74 611.35"/>
      </g>
    </g>
    <g>
      <text class="r" transform="translate(198.16 775.45)">D<tspan class="s" x="26.73" y="0">ev</tspan><tspan x="65.65" y="0">elopme</tspan><tspan class="t" x="185.72" y="0">n</tspan><tspan x="207.83" y="0">t</tspan></text>
      <text class="u" transform="translate(138.13 834.99)">It is a long established fact <tspan x="-25.9" y="42">that a reader will be distracted </tspan><tspan x="12.7" y="84">by the readable content.</tspan></text>
    </g>
    <g>
      <text class="r" transform="translate(656.49 775.45)"><tspan class="v">S</tspan><tspan x="18.74" y="0">ales force</tspan></text>
      <text class="u" transform="translate(571.98 834.99)">It is a long established fact <tspan x="-25.9" y="42">that a reader will be distracted </tspan><tspan x="12.7" y="84">by the readable content.</tspan></text>
    </g>
    <g>
      <text class="r" transform="translate(1111.01 775.45)">Support</text>
      <text class="u" transform="translate(1005.82 834.99)">It is a long established fact <tspan x="-25.9" y="42">that a reader will be distracted </tspan><tspan x="12.7" y="84">by the readable content.</tspan></text>
    </g>
    <g>
      <text class="r" transform="translate(1540.83 775.45)"><tspan class="w">Se</tspan><tspan x="37.44" y="0">curity</tspan></text>
      <text class="u" transform="translate(1439.67 834.99)">It is a long established fact <tspan x="-25.9" y="42">that a reader will be distracted </tspan><tspan x="12.7" y="84">by the readable content.</tspan></text>
    </g>
  </g>
</svg>
